<svg xmlns="http://www.w3.org/2000/svg" viewBox="0 0 448 512" width="100" height="100" fill="#2563eb">
  <!-- Font Awesome Free 6.4.0 by @fontawesome - https://fontawesome.com License - https://fontawesome.com/license (Commercial License) Copyright 2023 Fonticons, Inc. -->
  <path d="M304 160c-35.35 0-64 28.65-64 64c0 35.35 28.65 64 64 64s64-28.65 64-64C368 188.7 339.3 160 304 160zM304 256c-17.67 0-32-14.33-32-32c0-17.67 14.33-32 32-32s32 14.33 32 32C336 241.7 321.7 256 304 256zM405.1 288.1C447.5 297.4 448 336.8 448 384c0 11.71-.4824 22.55-1.205 32h-59.72c.8203-9.934 1.205-20.8 1.205-32c0-59.82-2.857-80.04-9.592-88.1c-5.484-6.582-20.9-13.93-63.1-22.81l-96.99 96.99l-40.97-40.97L214.7 192h122.2c-11.37-8.791-26.04-14.77-44.63-19.28C302.7 168.9 309.8 160.5 309.8 150.5c0-5.936-1.984-11.34-5.184-15.87c18.49 5.027 35.57 12.32 46.47 22.13c6.641 5.965 16.47 7.707 24.94 4.42c8.471-3.289 14.17-11.14 14.17-20.18C390.2 83.59 317.5 32 232 32c-88.37 0-160 51.91-160 110.3L72 160c0 9.041 5.699 16.89 14.17 20.18c8.467 3.287 18.3 1.545 24.94-4.42c10.91-9.803 27.98-17.1 46.47-22.13c-3.199 4.523-5.182 9.93-5.182 15.87c0 10.02 7.072 18.41 17.58 22.25c-19.44 4.756-34.77 11.19-46.34 20.77L156.1 192L196.1 329.4L157 369.3L60.1 273.3c-43.1 8.875-58.52 16.22-64 22.8C-9.739 304.9-12 325.3-12 384c0 11.2 .3828 22.07 1.205 32h-59.72C-71.4 405.4-72 394.5-72 383.1c0-46.31 0-87.65 42.4-95.99l39.86-39.86L42.92 136.9C57.65 68.51 139.9 0 232 0c90.69 0 174.2 68.01 189.7 135.9l32.15 112.3L405.1 288.1zM307.7 291.5c45.25 8.25 44.3 50.25 44.3 92.5c0 11.69-.3027 23.21-1.105 32h-49.79c.8027-9.223 1.188-20.9 1.188-32C302.3 341 303.3 299 348.5 291.5L347.7 288h-92.1l-10.55 42h-52.84L145.5 240h28.96L307.7 291.5zM74.43 416c-.8027-8.789-1.188-20.1-1.188-32c0-42.25-.95-84.25 44.3-92.5l-1.584-3.5h147.2l-16.8 67h-16.53l.1386 .332c-43.1 8.867-43.28 50.59-43.28 92.67c0 11.9 .3848 23.22 1.188 32H74.43z"/>
</svg> 